<svg width="54" height="54" viewBox="0 0 54 54" fill="none" xmlns="http://www.w3.org/2000/svg">
<path d="M26.5225 26.5204L41.4213 14.4282C42.4868 13.3817 43.2384 11.9927 43.4763 10.3944C44.0757 6.48414 41.3832 2.82129 37.4635 2.23143C33.5438 1.64157 29.8905 4.32449 29.3006 8.24421C29.9 4.334 27.2075 0.671152 23.2878 0.0812905C19.3681 -0.508571 15.7148 2.17435 15.1249 6.09407C14.8871 7.68289 15.182 9.23365 15.8955 10.5561L26.5225 26.5299V26.5204Z" fill="url(#paint0_linear_49_221)" style=""/>
<path d="M26.5226 26.5201L14.4304 11.6214C13.3839 10.5558 11.9949 9.80424 10.3965 9.56639C6.48633 8.96701 2.82348 11.6594 2.23362 15.5792C1.63424 19.4894 4.32667 23.1522 8.24639 23.7421C4.33619 23.1427 0.673341 25.8351 0.0834797 29.7549C-0.515895 33.6651 2.17654 37.3279 6.09626 37.9178C7.68508 38.1556 9.23584 37.8607 10.5583 37.1472L26.5321 26.5201H26.5226Z" fill="url(#paint1_linear_49_221)" style=""/>
<path d="M26.5226 26.5207L11.6238 38.6129C10.5583 39.6594 9.80668 41.0485 9.56883 42.6468C8.96946 46.557 11.6619 50.2198 15.5816 50.8097C19.5013 51.3996 23.1547 48.7167 23.7445 44.7969C23.1451 48.7071 25.8376 52.37 29.7573 52.9598C33.677 53.5497 37.3304 50.8668 37.9202 46.9471C38.1581 45.3582 37.8631 43.8075 37.1496 42.4851L26.5226 26.5112V26.5207Z" fill="url(#paint2_linear_49_221)" style=""/>
<path d="M26.5226 26.5206L38.6147 41.4193C39.6613 42.4849 41.0503 43.2365 42.6486 43.4743C46.5588 44.0737 50.2217 41.3813 50.8115 37.4616C51.4109 33.5513 48.7185 29.8885 44.7988 29.2986C48.709 29.898 52.3718 27.2056 52.9617 23.2859C53.5515 19.3661 50.8686 15.7128 46.9489 15.1229C45.3601 14.8851 43.8093 15.18 42.4869 15.8936L26.5131 26.5206H26.5226Z" fill="url(#paint3_linear_49_221)" style=""/>
<defs>
<linearGradient id="paint0_linear_49_221" x1="14.2753" y1="11.6827" x2="42.6247" y2="15.9904" gradientUnits="userSpaceOnUse">
<stop stop-color="#B7854D" style="stop-color:#B7854D;stop-color:color(display-p3 0.7176 0.5216 0.3020);stop-opacity:1;"/>
<stop offset="0.15" stop-color="#F5D98F" style="stop-color:#F5D98F;stop-color:color(display-p3 0.9608 0.8510 0.5608);stop-opacity:1;"/>
<stop offset="0.3" stop-color="#FFF9B3" style="stop-color:#FFF9B3;stop-color:color(display-p3 1.0000 0.9765 0.7020);stop-opacity:1;"/>
<stop offset="0.52" stop-color="#F4D88E" style="stop-color:#F4D88E;stop-color:color(display-p3 0.9569 0.8471 0.5569);stop-opacity:1;"/>
<stop offset="0.64" stop-color="#FEF9B4" style="stop-color:#FEF9B4;stop-color:color(display-p3 0.9961 0.9765 0.7059);stop-opacity:1;"/>
<stop offset="0.84" stop-color="#D4AF66" style="stop-color:#D4AF66;stop-color:color(display-p3 0.8314 0.6863 0.4000);stop-opacity:1;"/>
<stop offset="1" stop-color="#B7854D" style="stop-color:#B7854D;stop-color:color(display-p3 0.7176 0.5216 0.3020);stop-opacity:1;"/>
</linearGradient>
<linearGradient id="paint1_linear_49_221" x1="1.15568" y1="22.6608" x2="26.5235" y2="26.5155" gradientUnits="userSpaceOnUse">
<stop stop-color="#B7854D" style="stop-color:#B7854D;stop-color:color(display-p3 0.7176 0.5216 0.3020);stop-opacity:1;"/>
<stop offset="0.15" stop-color="#F5D98F" style="stop-color:#F5D98F;stop-color:color(display-p3 0.9608 0.8510 0.5608);stop-opacity:1;"/>
<stop offset="0.3" stop-color="#FFF9B3" style="stop-color:#FFF9B3;stop-color:color(display-p3 1.0000 0.9765 0.7020);stop-opacity:1;"/>
<stop offset="0.52" stop-color="#F4D88E" style="stop-color:#F4D88E;stop-color:color(display-p3 0.9569 0.8471 0.5569);stop-opacity:1;"/>
<stop offset="0.64" stop-color="#FEF9B4" style="stop-color:#FEF9B4;stop-color:color(display-p3 0.9961 0.9765 0.7059);stop-opacity:1;"/>
<stop offset="0.84" stop-color="#D4AF66" style="stop-color:#D4AF66;stop-color:color(display-p3 0.8314 0.6863 0.4000);stop-opacity:1;"/>
<stop offset="1" stop-color="#B7854D" style="stop-color:#B7854D;stop-color:color(display-p3 0.7176 0.5216 0.3020);stop-opacity:1;"/>
</linearGradient>
<linearGradient id="paint2_linear_49_221" x1="10.4207" y1="37.0508" x2="38.7702" y2="41.3585" gradientUnits="userSpaceOnUse">
<stop stop-color="#B7854D" style="stop-color:#B7854D;stop-color:color(display-p3 0.7176 0.5216 0.3020);stop-opacity:1;"/>
<stop offset="0.15" stop-color="#F5D98F" style="stop-color:#F5D98F;stop-color:color(display-p3 0.9608 0.8510 0.5608);stop-opacity:1;"/>
<stop offset="0.3" stop-color="#FFF9B3" style="stop-color:#FFF9B3;stop-color:color(display-p3 1.0000 0.9765 0.7020);stop-opacity:1;"/>
<stop offset="0.52" stop-color="#F4D88E" style="stop-color:#F4D88E;stop-color:color(display-p3 0.9569 0.8471 0.5569);stop-opacity:1;"/>
<stop offset="0.64" stop-color="#FEF9B4" style="stop-color:#FEF9B4;stop-color:color(display-p3 0.9961 0.9765 0.7059);stop-opacity:1;"/>
<stop offset="0.84" stop-color="#D4AF66" style="stop-color:#D4AF66;stop-color:color(display-p3 0.8314 0.6863 0.4000);stop-opacity:1;"/>
<stop offset="1" stop-color="#B7854D" style="stop-color:#B7854D;stop-color:color(display-p3 0.7176 0.5216 0.3020);stop-opacity:1;"/>
</linearGradient>
<linearGradient id="paint3_linear_49_221" x1="26.5235" y1="26.5159" x2="51.8912" y2="30.3706" gradientUnits="userSpaceOnUse">
<stop stop-color="#B7854D" style="stop-color:#B7854D;stop-color:color(display-p3 0.7176 0.5216 0.3020);stop-opacity:1;"/>
<stop offset="0.15" stop-color="#F5D98F" style="stop-color:#F5D98F;stop-color:color(display-p3 0.9608 0.8510 0.5608);stop-opacity:1;"/>
<stop offset="0.3" stop-color="#FFF9B3" style="stop-color:#FFF9B3;stop-color:color(display-p3 1.0000 0.9765 0.7020);stop-opacity:1;"/>
<stop offset="0.52" stop-color="#F4D88E" style="stop-color:#F4D88E;stop-color:color(display-p3 0.9569 0.8471 0.5569);stop-opacity:1;"/>
<stop offset="0.64" stop-color="#FEF9B4" style="stop-color:#FEF9B4;stop-color:color(display-p3 0.9961 0.9765 0.7059);stop-opacity:1;"/>
<stop offset="0.84" stop-color="#D4AF66" style="stop-color:#D4AF66;stop-color:color(display-p3 0.8314 0.6863 0.4000);stop-opacity:1;"/>
<stop offset="1" stop-color="#B7854D" style="stop-color:#B7854D;stop-color:color(display-p3 0.7176 0.5216 0.3020);stop-opacity:1;"/>
</linearGradient>
</defs>
</svg>
