<svg width="471" height="456" viewBox="0 0 471 456" fill="none" xmlns="http://www.w3.org/2000/svg">
<path d="M265.222 284.999C265.222 284.999 272.193 446.424 177.591 455.086C103.749 461.76 106.883 362.843 106.883 362.843C106.883 362.843 2.50449 376.337 10.8743 306.496C21.0095 222.9 175.087 241.041 175.087 241.041C175.087 241.041 -3.25273 249.323 0.698517 161.084C5.07553 64.8981 129.516 117.373 129.516 117.373C129.516 117.373 111.092 -10.5048 207.434 1.3112C290.059 11.5239 252.222 173.547 252.222 173.547C252.222 173.547 263.586 13.1685 347.395 20.1694C441.316 28.0367 387.955 144.84 387.955 144.84C387.955 144.84 499.834 157.431 462.562 245.914C425.29 334.398 278.909 270.604 278.909 270.604" fill="#D2E6D2" style="fill:#D2E6D2;fill:color(display-p3 0.8219 0.9010 0.8219);fill-opacity:1;"/>
</svg>
